<svg width="430" height="128" viewBox="0 0 430 128" fill="none" xmlns="http://www.w3.org/2000/svg">
  <title>KLM Group Logo</title>

  <defs>
    <linearGradient id="g1" x1="20" y1="108" x2="108" y2="20" gradientUnits="userSpaceOnUse">
      <stop offset="0" stop-color="#0E2A12"/>
      <stop offset="0.28" stop-color="#2E7D1F"/>
      <stop offset="0.58" stop-color="#71D62B"/>
      <stop offset="1" stop-color="#D8FF57"/>
    </linearGradient>

    <linearGradient id="g2" x1="96" y1="14" x2="34" y2="110" gradientUnits="userSpaceOnUse">
      <stop offset="0" stop-color="#E8FF9B"/>
      <stop offset="0.38" stop-color="#8BE12E"/>
      <stop offset="0.72" stop-color="#225D1A"/>
      <stop offset="1" stop-color="#07160D"/>
    </linearGradient>

    <radialGradient id="glow" cx="0" cy="0" r="1" gradientUnits="userSpaceOnUse" gradientTransform="translate(80 28) rotate(130) scale(42 38)">
      <stop offset="0" stop-color="#FFFFFF" stop-opacity="0.55"/>
      <stop offset="0.32" stop-color="#FFFFFF" stop-opacity="0.18"/>
      <stop offset="1" stop-color="#FFFFFF" stop-opacity="0"/>
    </radialGradient>

    <filter id="shadow" x="-20%" y="-20%" width="140%" height="140%">
      <feDropShadow dx="0" dy="6" stdDeviation="5" flood-color="#000000" flood-opacity="0.34"/>
    </filter>
  </defs>

  <g filter="url(#shadow)">
    <!-- outer swirl blades -->
    <path d="M64 10C80 10 95 16 106 28C90 24 74 25 60 31C51 20 42 14 31 11C41 10 52 10 64 10Z" fill="url(#g2)"/>
    <path d="M106 28C116 39 121 54 120 69C110 56 97 46 82 40C84 27 82 16 75 7C88 11 98 18 106 28Z" fill="url(#g1)"/>
    <path d="M120 69C117 84 109 97 97 107C96 91 91 76 81 63C92 55 100 44 103 31C113 42 119 54 120 69Z" fill="url(#g2)"/>
    <path d="M97 107C85 116 70 120 54 119C66 108 74 94 77 79C91 77 103 70 112 60C110 79 106 95 97 107Z" fill="url(#g1)"/>
    <path d="M54 119C39 117 25 110 15 99C31 102 46 99 60 91C69 102 80 110 93 114C81 120 68 121 54 119Z" fill="url(#g2)"/>
    <path d="M15 99C6 88 2 73 4 58C14 71 27 81 42 87C40 102 43 115 50 123C36 118 24 110 15 99Z" fill="url(#g1)"/>
    <path d="M4 58C7 42 15 28 27 18C27 35 32 50 42 63C30 72 22 83 19 97C9 85 3 72 4 58Z" fill="url(#g2)"/>
    <path d="M27 18C39 10 54 7 69 8C57 19 49 33 46 48C32 50 20 57 11 66C13 47 18 29 27 18Z" fill="url(#g1)"/>

    <!-- inner swirl -->
    <path d="M64 31C75 31 85 35 92 42C82 40 72 41 63 45C57 38 51 34 43 32C49 31 56 31 64 31Z" fill="#CFFF68" fill-opacity="0.88"/>
    <path d="M92 42C99 50 102 59 101 69C95 60 87 54 77 50C78 42 76 34 72 28C80 31 87 35 92 42Z" fill="#69D52A" fill-opacity="0.72"/>
    <path d="M101 69C99 79 94 88 86 95C85 84 82 74 76 66C83 61 89 54 91 46C97 53 100 60 101 69Z" fill="#A5F23F" fill-opacity="0.75"/>
    <path d="M86 95C78 101 69 104 59 103C66 96 71 88 73 79C82 77 90 73 95 67C94 79 91 88 86 95Z" fill="#19461C" fill-opacity="0.85"/>
    <path d="M59 103C49 102 40 98 33 91C43 93 52 91 61 86C67 93 74 98 82 101C75 104 67 104 59 103Z" fill="#B8FF52" fill-opacity="0.8"/>
    <path d="M33 91C27 84 24 75 25 65C31 73 39 79 49 82C48 91 50 99 55 105C46 102 39 98 33 91Z" fill="#0C2810" fill-opacity="0.9"/>
    <path d="M25 65C27 55 32 46 40 39C40 50 43 59 49 66C42 72 36 79 34 87C28 80 25 73 25 65Z" fill="#4FAF24" fill-opacity="0.82"/>
    <path d="M40 39C48 33 57 30 67 31C60 38 55 46 53 55C44 57 36 61 31 67C32 55 35 46 40 39Z" fill="#DFFF7D" fill-opacity="0.75"/>

    <!-- center hole -->
    <circle cx="63.5" cy="67.5" r="18" fill="#0B0B0B"/>

    <!-- glossy light -->
    <ellipse cx="78" cy="29" rx="28" ry="18" fill="url(#glow)"/>
  </g>

  <text
    x="154"
    y="77"
    fill="#F7F7EF"
    font-family="Inter, Manrope, Arial, sans-serif"
    font-size="48"
    font-weight="800"
    letter-spacing="-1.25"
  >
    KLM Group
  </text>
</svg>